<svg xmlns="http://www.w3.org/2000/svg" xmlns:xlink="http://www.w3.org/1999/xlink" width="300" zoomAndPan="magnify" viewBox="0 0 224.87999 449.999984" height="600" preserveAspectRatio="xMidYMid meet" version="1.0"><defs><clipPath id="id1"><path d="M 37 17.179688 L 186 17.179688 L 186 432.457031 L 37 432.457031 Z M 37 17.179688 " clip-rule="nonzero"/></clipPath></defs><g clip-path="url(#id1)"><path fill="#ffffff" d="M 111.046875 17.207031 C 106.238281 17.4375 106.488281 21.917969 106.191406 25.925781 C 103.769531 25.851562 102.046875 26.890625 101.402344 29.652344 C 93.996094 31.253906 98.0625 37.882812 101.667969 38.5 C 104.410156 38.800781 101.703125 41.339844 102.664062 42.160156 C 103.308594 42.710938 105.191406 42.425781 105.191406 42.425781 L 104.0625 50.609375 C 102.503906 50.492188 101.136719 51.675781 101.066406 52.941406 C 101.007812 54.019531 102.6875 55.199219 103.394531 55.203125 L 103.460938 56.066406 C 102.503906 56.390625 101.394531 56.511719 100.269531 56 C 99.492188 55.007812 98.71875 55.417969 97.941406 56 L 96.210938 56 C 93.636719 47.4375 81.957031 53.558594 81.445312 58.527344 C 80.957031 63.292969 92.316406 65.914062 94.816406 63.785156 C 95.449219 61.90625 96.3125 60.941406 97.476562 61.191406 C 98.347656 62.140625 99.34375 62.363281 100.570312 61.191406 C 101.683594 60.964844 102.578125 61.039062 103.164062 61.523438 L 102.996094 63.984375 C 101.125 63.765625 100.113281 65.039062 100.070312 66.28125 C 100.027344 67.488281 101.921875 68.714844 102.765625 68.707031 L 102.199219 75.097656 C 101.277344 76.289062 99.851562 75.21875 98.605469 74.964844 C 97.695312 74.277344 97.34375 75.269531 96.746094 75.527344 C 96.269531 76.324219 95.792969 75.679688 95.316406 75.496094 C 87.914062 70.796875 79.0625 74.234375 80.679688 78.589844 C 81.246094 86.179688 91.265625 82.785156 96.878906 80.054688 C 98.238281 81.554688 99.097656 80.558594 100.136719 80.453125 C 101.285156 79.992188 102.390625 79.925781 103.363281 81.050781 C 102.230469 112.699219 101.3125 144.410156 100.128906 176.035156 C 49.816406 184.339844 45.796875 215.269531 56.828125 253.550781 C 57.503906 256.210938 56.988281 258.875 55.894531 261.535156 C 54.972656 265.28125 57.304688 265.359375 59.089844 266.058594 C 84.835938 275.367188 73.773438 314.144531 57.625 320.222656 C 54.0625 321.5625 45.527344 314.726562 47.382812 330.070312 C 48.253906 332.460938 47.074219 336.648438 45.121094 341.511719 C 20.769531 409.925781 62.859375 430.707031 100.1875 432.0625 L 100.1875 432.167969 C 103.789062 432.410156 107.554688 432.453125 111.476562 432.289062 C 115.402344 432.453125 119.171875 432.40625 122.78125 432.164062 L 122.78125 432.058594 C 160.101562 430.699219 202.175781 409.914062 177.824219 341.515625 C 175.875 336.652344 174.691406 332.460938 175.566406 330.070312 C 177.417969 314.726562 168.886719 321.566406 165.320312 320.222656 C 149.171875 314.144531 138.109375 275.367188 163.859375 266.0625 C 165.640625 265.359375 167.976562 265.28125 167.050781 261.535156 C 165.957031 258.875 165.445312 256.214844 166.121094 253.550781 C 177.148438 215.269531 173.132812 184.339844 122.816406 176.035156 L 119.226562 80.289062 C 121.628906 79.351562 122.003906 78.0625 121.820312 76.5625 C 121.703125 75.59375 120.449219 74.730469 119.625 74.632812 L 119.160156 69.042969 L 120.757812 69.042969 C 122.003906 69.9375 122.871094 69.457031 123.683594 68.777344 C 124.328125 68.679688 124.980469 68.5625 125.277344 69.242188 C 127.972656 76.742188 141.433594 74.027344 140.109375 66.3125 C 138.433594 56.511719 125.453125 62.183594 125.34375 64.183594 C 124.875 64.679688 124.304688 64.484375 123.75 64.382812 C 122.800781 63.921875 121.875 63.320312 120.753906 64.050781 C 120.199219 64.371094 119.605469 64.289062 118.960938 63.71875 L 118.628906 60.792969 C 119.378906 60.925781 120.179688 58.339844 118.359375 56.601562 C 118.199219 56.445312 118.679688 56.011719 118.679688 56.011719 C 119.527344 55.03125 122.332031 54.929688 122.75 55.734375 C 128.285156 66.363281 137.175781 57.214844 137.25 53.9375 C 137.554688 40.800781 122.988281 44.992188 123.285156 50.542969 C 123.339844 51.605469 122.109375 50.859375 121.621094 51.144531 C 118.367188 51.121094 118.878906 51.34375 117.320312 50.671875 L 116.300781 42.492188 C 116.871094 41.769531 118.746094 42.929688 119.492188 42.160156 C 120.328125 41.300781 117.675781 39.03125 119.757812 38.566406 C 123.761719 38.011719 128.203125 30.996094 120.15625 29.785156 C 120.488281 26.996094 118.722656 26.042969 116.234375 25.726562 C 116.464844 20.246094 114.894531 17.191406 111.046875 17.210938 Z M 111.046875 17.207031 " fill-opacity="1" fill-rule="evenodd"/></g></svg>